<svg width="100%" height="100%" viewBox="0 0 24 24" fill="none" xmlns="http://www.w3.org/2000/svg">
<path fill-rule="evenodd" clip-rule="evenodd" d="M7.2514 13.2965C6.07295 14.0821 5.5 15.0577 5.5 16C5.5 16.9423 6.07295 17.9179 7.2514 18.7035C8.42286 19.4845 10.0988 20 12 20C13.9012 20 15.5771 19.4845 16.7486 18.7035C17.9271 17.9179 18.5 16.9423 18.5 16C18.5 15.0577 17.9271 14.0821 16.7486 13.2965C15.5771 12.5155 13.9012 12 12 12C10.0988 12 8.42286 12.5155 7.2514 13.2965ZM6.142 11.6324C7.68501 10.6037 9.75904 10 12 10C14.241 10 16.315 10.6037 17.858 11.6324C19.394 12.6564 20.5 14.1809 20.5 16C20.5 17.8191 19.394 19.3436 17.858 20.3676C16.315 21.3963 14.241 22 12 22C9.75904 22 7.68501 21.3963 6.142 20.3676C4.60598 19.3436 3.5 17.8191 3.5 16C3.5 14.1809 4.60598 12.6564 6.142 11.6324Z" fill="currentColor"/>
<path d="M5.5 12C5.5 11.0577 6.07295 10.0821 7.2514 9.29652C8.42286 8.51554 10.0988 8 12 8C13.9012 8 15.5771 8.51554 16.7486 9.29652C17.9271 10.0821 18.5 11.0577 18.5 12C18.5 12.0363 18.4991 12.0727 18.4974 12.1092C19.1414 12.6462 19.6731 13.2832 20.0265 14C20.3284 13.3874 20.5 12.7166 20.5 12C20.5 10.1809 19.394 8.65643 17.858 7.63242C16.315 6.60374 14.241 6 12 6C9.75904 6 7.68501 6.60374 6.142 7.63242C4.60598 8.65643 3.5 10.1809 3.5 12C3.5 12.7166 3.67162 13.3874 3.97354 14C4.32685 13.2832 4.85859 12.6462 5.50256 12.1092C5.50085 12.0727 5.5 12.0363 5.5 12Z" fill="currentColor"/>
<path d="M5.5 8C5.5 7.05767 6.07295 6.08215 7.2514 5.29652C8.42286 4.51554 10.0988 4 12 4C13.9012 4 15.5771 4.51554 16.7486 5.29652C17.9271 6.08215 18.5 7.05767 18.5 8C18.5 8.03635 18.4991 8.07275 18.4974 8.10918C19.1414 8.64618 19.6731 9.28317 20.0265 10C20.3284 9.38744 20.5 8.71658 20.5 8C20.5 6.18091 19.394 4.65643 17.858 3.63242C16.315 2.60374 14.241 2 12 2C9.75904 2 7.68501 2.60374 6.142 3.63242C4.60598 4.65643 3.5 6.18091 3.5 8C3.5 8.71658 3.67162 9.38744 3.97354 10C4.32685 9.28317 4.85859 8.64618 5.50256 8.10918C5.50085 8.07275 5.5 8.03635 5.5 8Z" fill="currentColor"/>
<path d="M15 16C15 17.6569 13.6569 19 12 19C10.3431 19 9 17.6569 9 16C9 14.3431 10.3431 13 12 13C13.6569 13 15 14.3431 15 16Z" fill="currentColor"/>
</svg>
