<svg width="100%" height="100%" viewBox="0 0 24 24" fill="none" xmlns="http://www.w3.org/2000/svg">
<path fill-rule="evenodd" clip-rule="evenodd" d="M6.22153 8.21449C4.77996 9.25562 4 10.6069 4 12C4 13.3931 4.77996 14.7444 6.22153 15.7855C7.66178 16.8257 9.70156 17.5 12 17.5C14.2984 17.5 16.3382 16.8257 17.7785 15.7855C19.22 14.7444 20 13.3931 20 12C20 10.6069 19.22 9.25562 17.7785 8.21449C16.3382 7.17431 14.2984 6.5 12 6.5C9.70156 6.5 7.66178 7.17431 6.22153 8.21449ZM5.05055 6.59313C6.86766 5.28077 9.32788 4.5 12 4.5C14.6721 4.5 17.1323 5.28077 18.9495 6.59313C20.7652 7.90453 22 9.80323 22 12C22 14.1968 20.7652 16.0955 18.9495 17.4069C17.1323 18.7192 14.6721 19.5 12 19.5C9.32788 19.5 6.86766 18.7192 5.05055 17.4069C3.23476 16.0955 2 14.1968 2 12C2 9.80323 3.23476 7.90453 5.05055 6.59313Z" fill="currentColor"/>
<path fill-rule="evenodd" clip-rule="evenodd" d="M12 8C12.5523 8 13 8.44772 13 9V11H15C15.5523 11 16 11.4477 16 12C16 12.5523 15.5523 13 15 13H13V15C13 15.5523 12.5523 16 12 16C11.4477 16 11 15.5523 11 15V13H9C8.44772 13 8 12.5523 8 12C8 11.4477 8.44772 11 9 11H11V9C11 8.44772 11.4477 8 12 8Z" fill="currentColor"/>
</svg>
