<svg width="100%" height="100%" viewBox="0 0 24 24" fill="none" xmlns="http://www.w3.org/2000/svg">
<path fill-rule="evenodd" clip-rule="evenodd" d="M5.2514 13.2965C4.07295 14.0821 3.5 15.0577 3.5 16C3.5 16.9423 4.07295 17.9179 5.2514 18.7035C6.42286 19.4845 8.09882 20 10 20C11.9012 20 13.5771 19.4845 14.7486 18.7035C15.9271 17.9179 16.5 16.9423 16.5 16C16.5 15.0577 15.9271 14.0821 14.7486 13.2965C13.5771 12.5155 11.9012 12 10 12C8.09882 12 6.42286 12.5155 5.2514 13.2965ZM4.142 11.6324C5.68501 10.6037 7.75904 10 10 10C12.241 10 14.315 10.6037 15.858 11.6324C17.394 12.6564 18.5 14.1809 18.5 16C18.5 17.8191 17.394 19.3436 15.858 20.3676C14.315 21.3963 12.241 22 10 22C7.75904 22 5.68501 21.3963 4.142 20.3676C2.60598 19.3436 1.5 17.8191 1.5 16C1.5 14.1809 2.60598 12.6564 4.142 11.6324Z" fill="currentColor"/>
<path d="M5.83467 10.7574C6.12046 10.237 6.5908 9.73692 7.2514 9.29652C8.42286 8.51554 10.0988 8 12 8C13.9012 8 15.5771 8.51554 16.7486 9.29652C17.9271 10.0821 18.5 11.0577 18.5 12C18.5 12.57 18.2904 13.1521 17.8639 13.697C18.2483 14.3585 18.4791 15.0953 18.4986 15.8898C19.6922 14.894 20.5 13.5546 20.5 12C20.5 10.1809 19.394 8.65643 17.858 7.63242C16.315 6.60374 14.241 6 12 6C9.75904 6 7.68501 6.60374 6.142 7.63242C4.60598 8.65643 3.5 10.1809 3.5 12C3.5 12.0368 3.50045 12.0736 3.50136 12.1102C3.70443 11.9408 3.91867 11.7813 4.142 11.6324C4.65249 11.2921 5.22111 10.9983 5.83467 10.7574Z" fill="currentColor"/>
<path d="M7.83467 6.75744C8.12046 6.23699 8.5908 5.73692 9.2514 5.29652C10.4229 4.51554 12.0988 4 14 4C15.9012 4 17.5771 4.51554 18.7486 5.29652C19.927 6.08215 20.5 7.05767 20.5 8C20.5 8.56999 20.2904 9.15213 19.8639 9.69704C20.2483 10.3585 20.4791 11.0953 20.4986 11.8898C21.6922 10.894 22.5 9.55461 22.5 8C22.5 6.18091 21.394 4.65643 19.858 3.63242C18.315 2.60374 16.241 2 14 2C11.759 2 9.68501 2.60374 8.142 3.63242C6.60598 4.65643 5.5 6.18091 5.5 8C5.5 8.03685 5.50045 8.07358 5.50136 8.11019C5.70443 7.94077 5.91867 7.7813 6.142 7.63242C6.65249 7.29209 7.22111 6.99827 7.83467 6.75744Z" fill="currentColor"/>
<path d="M13 16C13 17.6569 11.6569 19 10 19C8.34315 19 7 17.6569 7 16C7 14.3431 8.34315 13 10 13C11.6569 13 13 14.3431 13 16Z" fill="currentColor"/>
</svg>
